<svg t="1747813634162" class="icon" viewBox="0 0 1024 1024" version="1.1" xmlns="http://www.w3.org/2000/svg" p-id="5759" width="200" height="200"><path d="M777.604414 176.551724H246.572138a106.813793 106.813793 0 0 0-74.78731 31.320276c-19.773793 19.844414-30.72 46.609655-30.543449 74.434207V681.842759a104.342069 104.342069 0 0 0 30.437518 74.398896c19.703172 19.844414 46.574345 31.143724 74.716689 31.426207H326.62069c1.765517 0.141241 3.425103 0.98869 4.590344 2.330483a6.638345 6.638345 0 0 1 1.588966 4.837517v92.654345c0 8.121379 3.283862 15.854345 9.074759 21.53931a31.179034 31.179034 0 0 0 39.582896 3.460414l175.245242-122.173793 1.836137-1.306483a5.437793 5.437793 0 0 1 3.460414-1.341793h215.604966a106.813793 106.813793 0 0 0 74.716689-31.426207c19.738483-19.844414 30.649379-46.609655 30.437518-74.398896V282.306207a104.342069 104.342069 0 0 0-30.472828-74.363586A106.813793 106.813793 0 0 0 777.604414 176.551724z m43.361103 505.785379c0.141241 11.546483-4.307862 22.704552-12.429241 31.002483-8.121379 8.333241-19.244138 13.135448-30.931862 13.417931h-215.958069c-15.218759-0.070621-30.013793 4.978759-41.913379 14.26538l-125.528276 87.640275v-33.792a67.442759 67.442759 0 0 0-19.632552-47.810206 69.031724 69.031724 0 0 0-47.951448-20.338759H246.395586a44.738207 44.738207 0 0 1-31.073103-13.523862 43.749517 43.749517 0 0 1-12.288-31.320276V282.306207a43.537655 43.537655 0 0 1 12.35862-31.214345c8.121379-8.368552 19.244138-13.206069 31.002483-13.453241h531.032276c11.723034 0.247172 22.881103 5.08469 31.002483 13.453241 8.121379 8.368552 12.570483 19.597241 12.358621 31.214345l0.176551 400.066207z" fill="#1E9CFF" p-id="5760"></path><path d="M361.789793 600.275862a29.131034 29.131034 0 0 1-26.835862-40.500965l78.636138-185.167449a35.310345 35.310345 0 0 1 32.485517-21.504h15.254069a35.310345 35.310345 0 0 1 32.485517 21.539311l78.636138 185.132138a29.131034 29.131034 0 0 1-53.530482 22.951724l-7.874207-18.255449a35.310345 35.310345 0 0 0-32.414897-21.256827h-49.787586a35.310345 35.310345 0 0 0-32.450207 21.256827l-7.874207 18.255449a29.131034 29.131034 0 0 1-26.729931 17.549241z m114.299586-134.497103a24.011034 24.011034 0 1 0-44.349793 18.573241 24.011034 24.011034 0 0 0 44.349793-18.573241zM643.884138 600.275862a27.012414 27.012414 0 0 1-26.977104-27.012414v-193.147586a27.012414 27.012414 0 0 1 53.989518 0v193.147586a27.012414 27.012414 0 0 1-27.012414 27.012414z" fill="#1E9CFF" p-id="5761"></path></svg>