<?xml version="1.0" standalone="no"?><!DOCTYPE svg PUBLIC "-//W3C//DTD SVG 1.1//EN" "http://www.w3.org/Graphics/SVG/1.1/DTD/svg11.dtd"><svg t="1735290882486" class="icon" viewBox="0 0 1024 1024" version="1.1" xmlns="http://www.w3.org/2000/svg" p-id="4898" xmlns:xlink="http://www.w3.org/1999/xlink" width="200" height="200"><path d="M606.72 774.144H752.64v99.328l256.512-151.552-256.512-152.064v99.328h-145.92v104.96zM239.104 73.728c0-5.632 5.632-11.776 11.776-11.776h431.616v221.696h221.696V599.04l58.368 34.816V324.608c0-40.96-23.552-116.736-46.592-139.776l-122.368-122.88C763.904 32.768 711.68 15.36 676.864 15.36H250.88c-40.96 0-70.144 29.184-70.144 70.144V225.28h58.368V73.728z m501.76 11.776L752.64 97.28l122.368 122.368s5.632 5.632 5.632 11.776h-145.92c6.144 0 6.144-145.92 6.144-145.92z m-134.144 274.432h227.328v64h-227.328V359.936z m303.616 559.616c0 5.632-5.632 11.776-11.776 11.776H257.024c-5.632 0-11.776-5.632-11.776-11.776v-46.592H186.88v46.592c0 40.96 29.184 70.144 70.144 70.144h641.536c40.96 0 70.144-29.184 70.144-70.144v-116.736l-58.368 34.816v81.92zM542.72 283.648H17.408V808.96H542.72V283.648z m-192.512 414.208l-70.144-110.592-29.184 46.592h29.184v58.368H116.736l116.736-168.96-99.328-152.064h87.552l58.368 87.552 64-87.552h87.552l-104.96 151.552 116.736 168.96-93.184 6.144z m256.512-209.92h227.328v64h-227.328V487.936z" p-id="4899" fill="#63bb4e"></path></svg>