<svg xmlns="http://www.w3.org/2000/svg" width="26" height="21.5" viewBox="0 0 26 21.5"><defs><style>.a{fill:#29cc44;}</style></defs><path class="a" d="M24.622,93.724a7.886,7.886,0,0,1,.888.055c-.8-3.759-4.772-6.551-9.308-6.551-5.071,0-9.225,3.495-9.225,7.933,0,2.563,1.382,4.666,3.692,6.3l-.923,2.806,3.225-1.635a15.637,15.637,0,0,0,3.231.468c.29,0,.576-.015.861-.037a7.019,7.019,0,0,1-.285-1.955A7.593,7.593,0,0,1,24.622,93.724ZM19.6,91.005a1.442,1.442,0,1,1-1.426,1.442A1.434,1.434,0,0,1,19.6,91.005Zm-6.455,2.914a1.442,1.442,0,1,1,1.426-1.442A1.434,1.434,0,0,1,13.142,93.919Zm19.835,7.106c0-3.73-3.691-6.77-7.836-6.77-4.389,0-7.846,3.04-7.846,6.77s3.457,6.77,7.846,6.77a11.468,11.468,0,0,0,2.768-.468l2.531,1.4-.694-2.331C31.6,104.992,32.977,103.129,32.977,101.025ZM22.731,99.979a1.027,1.027,0,1,1,1.016-1.027A1.021,1.021,0,0,1,22.731,99.979Zm5.071.058a1.027,1.027,0,1,1,1.016-1.027A1.021,1.021,0,0,1,27.8,100.038Z" transform="translate(-6.977 -87.228)"/></svg>