<svg width="111" height="111" viewBox="0 0 111 111" fill="none" xmlns="http://www.w3.org/2000/svg">
<g clip-path="url(#clip0_334_6341)">
<path d="M55.5019 110.983C44.4456 111.001 33.6384 107.7 24.4792 101.507C15.5575 95.4816 8.57474 86.9979 4.37712 77.0837C0.779732 68.5811 -0.636635 59.3143 0.256681 50.1252C1.15 40.936 4.32469 32.1157 9.49238 24.4654C15.5166 15.5426 23.9993 8.55896 33.9124 4.36095C42.4137 0.763465 51.6791 -0.652892 60.8668 0.240525C70.0545 1.13394 78.8735 4.30882 86.5227 9.4768C95.4444 15.5017 102.427 23.9854 106.625 33.8996C110.222 42.402 111.638 51.6684 110.745 60.8572C109.851 70.046 106.677 78.866 101.51 86.5161C95.4853 95.4389 87.0026 102.423 77.0895 106.621C70.2603 109.512 62.9179 110.996 55.5019 110.983ZM55.5019 16.6519C47.8201 16.6519 40.3109 18.9302 33.9238 23.1985C27.5366 27.4668 22.5586 33.5336 19.6191 40.6315C16.6795 47.7294 15.9106 55.5397 17.4095 63.0747C18.9084 70.6097 22.6078 77.5309 28.0399 82.9631C33.472 88.3953 40.3928 92.0945 47.927 93.5929C55.4613 95.0913 63.2706 94.3215 70.3674 91.381C77.4643 88.4404 83.5298 83.4612 87.797 77.0729C92.0643 70.6847 94.3415 63.1743 94.3408 55.4917C94.328 45.194 90.2319 35.3218 82.9508 28.0406C75.6698 20.7594 65.7983 16.6637 55.5019 16.6519Z" fill="#E4E5E6"/>
<path fill-rule="evenodd" clip-rule="evenodd" d="M10.6136 88.1165C17.1024 97.0703 26.1288 103.87 36.5247 107.636C42.5943 109.859 49.007 110.998 55.4705 111.002C56.4122 111.002 57.3686 110.976 58.3103 110.928C69.059 110.369 79.4152 106.706 88.1249 100.382C95.6001 94.9612 101.602 87.7585 105.586 79.428C109.57 71.0975 111.41 61.9034 110.937 52.6812C110.38 41.9299 106.717 31.5711 100.392 22.8594C94.2729 14.4076 85.8831 7.86384 76.1961 3.98722C75.9907 3.89656 75.7669 3.80035 75.5264 3.71154L75.4814 3.69579C75.3828 3.66127 75.2927 3.62972 75.2026 3.60237L74.6476 3.39515L74.5107 3.34519C72.436 2.5904 70.1465 2.69072 68.1457 3.62408C66.1449 4.55745 64.5968 6.24741 63.8418 8.32228C63.09 10.3911 63.188 12.6736 64.1143 14.6704C65.0406 16.6672 66.72 18.2159 68.785 18.9777C77.3647 22.1069 84.5679 28.159 89.1299 36.0713C93.6919 43.9836 95.321 53.2503 93.7312 62.2443C92.1415 71.2384 87.4344 79.3848 80.4366 85.2534C73.4387 91.1219 64.5974 94.3373 55.465 94.3351C49.2268 94.3259 43.0827 92.8144 37.552 89.9285C32.0214 87.0427 27.2669 82.8673 23.6907 77.7555C20.1145 72.6437 17.8216 66.7457 17.006 60.5604C16.1905 54.3751 16.8762 48.0843 19.0052 42.2201C19.7002 40.16 19.562 37.9098 18.62 35.9503C17.678 33.9908 16.007 32.4776 13.9642 31.7341C11.9213 30.9905 9.66869 31.0757 7.68778 31.9713C5.70687 32.8669 4.15483 34.502 3.36342 36.527L3.33196 36.6139C-0.432278 46.97 -1.01215 58.2155 1.66696 68.9039C3.39415 75.8211 6.43116 82.3429 10.6136 88.1165ZM37.6277 76.7521C42.5932 80.8178 48.8107 83.0428 55.2281 83.0506C58.9509 83.0554 62.6364 82.3084 66.0636 80.8544C72.7012 77.8737 77.9082 72.4123 80.5694 65.6396C83.2307 58.8669 83.1347 51.3213 80.3021 44.6185C77.4694 37.9156 72.1253 32.5884 65.414 29.7776C58.7026 26.9667 51.1576 26.8955 44.3945 29.5794C38.4864 32.0849 33.6253 36.5551 30.634 42.2333C27.6426 47.9116 26.7049 54.449 27.9793 60.7393C29.2538 67.0296 32.6622 72.6863 37.6277 76.7521ZM43.1179 39.9559C46.5185 37.3429 50.6862 35.9249 54.9747 35.9219C58.3977 35.9187 61.7611 36.8179 64.7261 38.5287C67.691 40.2395 70.1528 42.7017 71.8633 45.667C74.0071 49.3816 74.8657 53.6998 74.3059 57.952C73.7461 62.2043 71.7993 66.1531 68.7671 69.1861C65.735 72.2191 61.7871 74.167 57.5354 74.7276C53.2838 75.2883 48.9659 74.4304 45.2514 72.2871C41.5368 70.1437 38.6331 66.8346 36.9904 62.8727C35.3477 58.9109 35.0578 54.5177 36.1656 50.3744C37.2735 46.231 39.7172 42.5689 43.1179 39.9559Z" fill="url(#paint0_linear_334_6341)"/>
</g>
<defs>
<linearGradient id="paint0_linear_334_6341" x1="69.871" y1="31.9683" x2="40.052" y2="78.699" gradientUnits="userSpaceOnUse">
<stop stop-color="#1E9CFF"/>
<stop offset="1" stop-color="#2FC0FF"/>
</linearGradient>
<clipPath id="clip0_334_6341">
<rect width="111" height="111" fill="white"/>
</clipPath>
</defs>
</svg>
